<svg xmlns="http://www.w3.org/2000/svg" width="640" height="640" viewBox="0 0 640 640">
  <rect width="640" height="640" fill="#0f1115"/>
  <path d="M0 249v249h52V120.6l.877.95.878.95 23.74 45 23.74 45 10.516 20 10.517 20L131 269l8.733 16.5 6.274 12 6.273 12 3.736 7 3.735 7 10.499 20 10.499 20 3.778 7.25 3.778 7.25H247v-.846l-3.891-7.327-3.892-7.327-23.723-45-23.724-45-6.022-11.5-6.022-11.5-4.244-8-4.243-8-24.75-47-24.75-47-8.72-16.5-8.72-16.5-6.789-13-6.789-13-8.982-17-8.982-17-4.741-9-4.741-9-6.787-13-6.787-13-.973-1.25L47.755 0H0zM98 .459v.459l14.108 26.791L126.216 54.5l5.269 10 5.269 10 15.473 29.5 15.473 29.5 7.287 14 7.287 14 3.238 6 3.238 6 6.001 11.5 6.001 11.5 9.743 18.5 9.743 18.5 6.02 11.5 6.019 11.5 10.503 20 10.503 20 9.734 18.5 9.734 18.5 5.752 11 5.752 11 5.955 11.25 5.956 11.25h42.577l5.761-11.25 5.761-11.25.716-1 .715-1 9.288-18 9.288-18 .723-1 .723-1 8.776-17 8.776-17 2.766-5 2.765-5 19.456-37 19.457-37 5.013-9.5 5.012-9.5 14.756-28 14.756-28 .875-.95.874-.95V498h52V0h-48.509l-4.103 7.75-4.104 7.75L438.036 77l-32.249 61.5-3.782 7-3.782 7-27.508 52.5-27.507 52.5-7.148 13.5-7.148 13.5-5.187 10.256-5.187 10.257-1.019-.335-1.019-.334-17.527-33.422-17.528-33.422L268.07 212l-13.376-25.5-3.211-6-3.211-6-30.74-58.5-30.74-58.5-5.595-10.5-5.595-10.5-6.838-13-6.839-13-2.671-5.25L156.583 0H98zM355.168 7.25l-3.971 7.25L326 62.5l-25.196 48-6.485 12.3-6.484 12.301 14.204 27.199 14.203 27.2.694.765.694.765 12.935-24.702 12.935-24.703 6.041-11.562 6.041-11.563 6.842-13 6.842-13 5.49-10.5 5.491-10.5 10.519-20 10.52-20 7.263-13.666 7.263-13.667.661-2.083.662-2.084H359.14zM421 323.815v.814l-6.34 11.936-6.339 11.935-6.575 12.5-6.575 12.5-12.586 23.877L370 421.254V498h52V323h-1zM105 411v87h52v-76.309l-8.872-17.095-8.872-17.096-9.257-17.5-9.257-17.5-7.455-14.25-7.456-14.25H105z" fill="#f4f4f2" fill-rule="evenodd" transform="translate(97.8 110) scale(.8434)"/>
</svg>
